<svg width="23" height="18" viewBox="0 0 23 18" fill="none" xmlns="http://www.w3.org/2000/svg">
<path d="M15 1H22V3H17C16.2 3 16 3.66667 16 4V7C16 7.8 16.6667 8 17 8H21C21.8 8 22 8.66667 22 9V16C22 16.8 21.3333 17 21 17H14V14.5H19C19.8 14.5 20 13.8333 20 13.5V11C20 10.2 19.3333 10 19 10H15C14.2 10 14 9.33333 14 9V2C14 1.2 14.6667 1 15 1Z" fill="#81D4FA" stroke="#81D4FA"/>
<path d="M2 1H9V3H4C3.2 3 3 3.66667 3 4V7C3 7.8 3.66667 8 4 8H8C8.8 8 9 8.66667 9 9V16C9 16.8 8.33333 17 8 17H1V14.5H6C6.8 14.5 7 13.8333 7 13.5V11C7 10.2 6.33333 10 6 10H2C1.2 10 1 9.33333 1 9V2C1 1.2 1.66667 1 2 1Z" fill="#81D4FA" stroke="#81D4FA"/>
<rect x="10" y="15" width="2" height="2" fill="#81D4FA"/>
</svg>
