<svg width="345" height="42" viewBox="0 0 345 42" fill="none" xmlns="http://www.w3.org/2000/svg">
<path d="M12.52 15.24C11.8 15.24 11.2133 15.0133 10.76 14.56C10.3067 14.08 10.16 13.4133 10.32 12.56C10.56 11.3867 10.76 10.1333 10.92 8.8C11.08 7.44 11.1067 6.10667 11 4.8C10.9733 4.10666 11.12 3.53333 11.44 3.08C11.76 2.6 12.2667 2.36 12.96 2.36C13.6 2.36 14.12 2.52 14.52 2.84C14.9467 3.16 15.2 3.56 15.28 4.04C15.5467 5.58666 15.6 7.21333 15.44 8.92C15.28 10.6267 14.96 12.2133 14.48 13.68C14.3467 14.16 14.1067 14.5467 13.76 14.84C13.4133 15.1067 13 15.24 12.52 15.24ZM3.28 15.24C2.8 15.24 2.36 15.0933 1.96 14.8C1.58667 14.5067 1.30667 14.12 1.12 13.64C0.96 13.1333 0.96 12.6267 1.12 12.12C1.41333 11.1067 1.65333 9.94667 1.84 8.64C2.02667 7.33333 2 6.05333 1.76 4.8C1.65333 4.10666 1.77333 3.53333 2.12 3.08C2.49333 2.6 3.02667 2.36 3.72 2.36C4.38667 2.36 4.92 2.53333 5.32 2.88C5.74667 3.2 6.01333 3.6 6.12 4.08C6.33333 5.06667 6.42667 6.12 6.4 7.24C6.37333 8.36 6.25333 9.46666 6.04 10.56C5.82667 11.6533 5.56 12.6933 5.24 13.68C5.05333 14.16 4.8 14.5467 4.48 14.84C4.16 15.1067 3.76 15.24 3.28 15.24ZM40.3728 31.4C39.7061 31.4 39.1328 31.16 38.6528 30.68C38.1995 30.2 37.7195 29.4 37.2128 28.28C36.7328 27.32 36.2928 26.1467 35.8928 24.76C35.4928 23.3467 35.1461 21.8533 34.8528 20.28C34.5861 18.7067 34.3728 17.2133 34.2128 15.8C34.0261 14.0667 33.8528 12.6267 33.6928 11.48C33.5328 10.3333 33.3595 9.42667 33.1728 8.76C33.0128 8.09333 32.8128 7.62667 32.5728 7.36C32.3328 7.06666 32.0128 6.92 31.6128 6.92C30.9195 6.92 30.1461 7.45333 29.2928 8.52C28.4661 9.58667 27.6395 11.1067 26.8128 13.08C25.9861 15.0533 25.2128 17.4267 24.4928 20.2C23.7995 22.9733 23.2128 26.0667 22.7328 29.48C22.6528 30.0933 22.4795 30.56 22.2128 30.88C21.9728 31.1733 21.5995 31.32 21.0928 31.32C20.2928 31.32 19.6795 31.04 19.2528 30.48C18.8261 29.8933 18.6128 28.9067 18.6128 27.52C18.6128 25.92 18.7461 24.36 19.0128 22.84C19.3061 21.32 19.6395 19.8267 20.0128 18.36C20.4128 16.8667 20.7595 15.3733 21.0528 13.88C21.3728 12.36 21.5595 10.84 21.6128 9.32C21.6395 8.86667 21.7595 8.50667 21.9728 8.24C22.2128 7.97333 22.5595 7.84 23.0128 7.84C23.4395 7.84 23.8661 7.96 24.2928 8.2C24.7195 8.41333 25.1061 8.78666 25.4528 9.32L23.6528 9.84C24.8261 7.49333 26.0795 5.70666 27.4128 4.48C28.7461 3.22667 30.1861 2.6 31.7328 2.6C33.3861 2.6 34.6395 3.06667 35.4928 4C36.3728 4.90667 37.0261 6.32 37.4528 8.24C37.9061 10.16 38.2928 12.6667 38.6128 15.76C38.8528 17.8667 39.1595 19.6933 39.5328 21.24C39.9328 22.76 40.3195 24.0533 40.6928 25.12C41.0928 26.16 41.4261 27.0533 41.6928 27.8C41.9595 28.52 42.0928 29.16 42.0928 29.72C42.0928 30.2533 41.9461 30.6667 41.6528 30.96C41.3595 31.2533 40.9328 31.4 40.3728 31.4ZM18.9728 23.8C18.1461 23.8 17.5328 23.6267 17.1328 23.28C16.7595 22.9333 16.5728 22.48 16.5728 21.92C16.5728 21.52 16.6928 21.1867 16.9328 20.92C17.1995 20.6267 17.6261 20.3733 18.2128 20.16C21.0928 19.1733 24.3861 18.4267 28.0928 17.92C31.7995 17.3867 35.8395 17.12 40.2128 17.12C41.3595 17.12 42.1328 17.2933 42.5328 17.64C42.9595 17.9867 43.1728 18.4667 43.1728 19.08C43.1728 19.7733 42.8661 20.3467 42.2528 20.8C41.6395 21.2533 40.7728 21.48 39.6528 21.48C36.9595 21.48 34.6261 21.56 32.6528 21.72C30.7061 21.8533 29.0261 22.04 27.6128 22.28C26.2261 22.4933 25.0261 22.72 24.0128 22.96C22.9995 23.2 22.0928 23.4 21.2928 23.56C20.5195 23.72 19.7461 23.8 18.9728 23.8ZM56.3356 31.36C54.3623 31.36 52.669 30.9733 51.2556 30.2C49.8423 29.4267 48.7623 28.36 48.0156 27C47.269 25.6133 46.8956 24.0133 46.8956 22.2C46.8956 20.6 47.2156 19.1067 47.8556 17.72C48.5223 16.3333 49.429 15.12 50.5756 14.08C51.7223 13.0133 53.029 12.1867 54.4956 11.6C55.989 11.0133 57.5756 10.72 59.2556 10.72C59.8956 10.72 60.469 10.8133 60.9756 11C61.4823 11.1867 61.8823 11.4933 62.1756 11.92C62.4956 12.32 62.6556 12.8667 62.6556 13.56C62.6556 14.2 62.509 14.7467 62.2156 15.2C61.949 15.6267 61.5356 15.84 60.9756 15.84C60.6556 15.84 60.4156 15.7733 60.2556 15.64C60.0956 15.5067 59.909 15.3867 59.6956 15.28C59.509 15.1733 59.189 15.12 58.7356 15.12C57.3223 15.12 56.0556 15.4533 54.9356 16.12C53.8423 16.76 52.9623 17.64 52.2956 18.76C51.6556 19.8533 51.3356 21.0933 51.3356 22.48C51.3356 23.3867 51.5223 24.1867 51.8956 24.88C52.269 25.5733 52.829 26.12 53.5756 26.52C54.3223 26.8933 55.2423 27.08 56.3356 27.08C57.4823 27.08 58.3623 26.9467 58.9756 26.68C59.589 26.4133 60.0556 26.12 60.3756 25.8C60.6956 25.4533 60.989 25.16 61.2556 24.92C61.5223 24.6533 61.869 24.52 62.2956 24.52C62.749 24.52 63.0956 24.6667 63.3356 24.96C63.6023 25.2533 63.7356 25.68 63.7356 26.24C63.7356 27.2267 63.4023 28.1067 62.7356 28.88C62.0956 29.6533 61.2156 30.2667 60.0956 30.72C59.0023 31.1467 57.749 31.36 56.3356 31.36ZM76.0641 31.52C73.9307 31.52 72.2107 31.0267 70.9041 30.04C69.5974 29.0267 68.6507 27.6267 68.0641 25.84C67.5041 24.0267 67.2241 21.9333 67.2241 19.56C67.2241 18.1467 67.2907 16.8933 67.4241 15.8C67.5841 14.68 67.7441 13.6133 67.9041 12.6C68.0907 11.5867 68.2241 10.5467 68.3041 9.48C68.3841 8.25333 68.4241 7.26666 68.4241 6.52C68.4241 5.77333 68.4507 5.06667 68.5041 4.4C68.5307 3.92 68.6774 3.50667 68.9441 3.16C69.2374 2.78667 69.7174 2.6 70.3841 2.6C71.3441 2.6 72.0241 3.09333 72.4241 4.08C72.8241 5.06667 72.9441 6.61333 72.7841 8.72C72.6774 9.68 72.5574 10.5733 72.4241 11.4C72.2907 12.2 72.1574 13 72.0241 13.8C71.9174 14.5733 71.8241 15.4133 71.7441 16.32C71.6641 17.2 71.6241 18.2133 71.6241 19.36C71.6241 21.3067 71.7974 22.8533 72.1441 24C72.5174 25.1467 73.0507 25.9733 73.7441 26.48C74.4641 26.96 75.3574 27.2 76.4241 27.2C77.0641 27.2 77.5574 27.1333 77.9041 27C78.2774 26.8667 78.5974 26.7467 78.8641 26.64C79.1307 26.5067 79.4374 26.44 79.7841 26.44C80.2641 26.44 80.6241 26.5867 80.8641 26.88C81.1041 27.1733 81.2241 27.5867 81.2241 28.12C81.2241 29.0267 80.7974 29.8267 79.9441 30.52C79.1174 31.1867 77.8241 31.52 76.0641 31.52ZM71.4241 16.48C70.5707 16.8533 69.9174 16.8667 69.4641 16.52C69.0107 16.1733 68.7841 15.68 68.7841 15.04C68.7841 14.4 68.9174 13.84 69.1841 13.36C69.4774 12.8533 70.1841 12.4 71.3041 12C72.3174 11.6 73.4374 11.2933 74.6641 11.08C75.9174 10.84 77.0907 10.72 78.1841 10.72C79.2241 10.72 79.9707 10.9333 80.4241 11.36C80.9041 11.76 81.1441 12.3067 81.1441 13C81.1441 13.5067 80.9841 13.8933 80.6641 14.16C80.3707 14.4267 79.9307 14.5867 79.3441 14.64C78.1974 14.72 77.1707 14.84 76.2641 15C75.3841 15.16 74.5574 15.36 73.7841 15.6C73.0374 15.84 72.2507 16.1333 71.4241 16.48ZM101.581 31.52C100.728 31.52 100.048 31.08 99.5409 30.2C99.0343 29.32 98.7809 28.0667 98.7809 26.44C98.7809 25.16 98.9409 23.7067 99.2609 22.08C99.6076 20.4267 100.128 18.5733 100.821 16.52C100.821 15.48 100.741 14.5333 100.581 13.68C100.448 12.8 100.248 11.9067 99.9809 11C99.7409 10.0667 99.4209 9.04 99.0209 7.92C98.7009 6.96 98.6609 6.24 98.9009 5.76C99.1409 5.25333 99.6876 5 100.541 5C101.554 5 102.394 5.49333 103.061 6.48C103.728 7.44 104.221 9.12 104.541 11.52L103.501 11.68C104.488 9.62667 105.621 7.93333 106.901 6.6C108.181 5.26667 109.568 4.26667 111.061 3.6C112.581 2.93333 114.154 2.6 115.781 2.6C116.981 2.6 118.008 2.77333 118.861 3.12C119.714 3.46667 120.408 3.94667 120.941 4.56C121.501 5.17333 121.914 5.89333 122.181 6.72C122.448 7.54667 122.581 8.44 122.581 9.4C122.581 10.4933 122.341 11.6 121.861 12.72C121.408 13.8133 120.661 14.8933 119.621 15.96C118.581 17 117.221 18.0133 115.541 19C113.861 19.96 111.808 20.8667 109.381 21.72C110.741 22.7067 112.408 23.6933 114.381 24.68C116.381 25.6667 118.528 26.52 120.821 27.24C121.914 27.5333 122.634 27.84 122.981 28.16C123.354 28.48 123.541 28.8667 123.541 29.32C123.541 30.0133 123.301 30.5467 122.821 30.92C122.368 31.2933 121.648 31.48 120.661 31.48C120.021 31.48 119.141 31.3067 118.021 30.96C116.901 30.6133 115.674 30.1467 114.341 29.56C113.008 28.9733 111.674 28.3067 110.341 27.56C109.034 26.8133 107.834 26.0267 106.741 25.2C105.648 24.3733 104.781 23.5467 104.141 22.72C103.848 22.2933 103.688 21.84 103.661 21.36C103.634 20.8533 103.754 20.4 104.021 20C104.314 19.5733 104.728 19.2667 105.261 19.08C107.688 18.36 109.728 17.5733 111.381 16.72C113.034 15.8667 114.354 15.0133 115.341 14.16C116.328 13.3067 117.034 12.4933 117.461 11.72C117.888 10.92 118.101 10.2 118.101 9.56C118.101 8.78667 117.888 8.14667 117.461 7.64C117.061 7.13333 116.354 6.88 115.341 6.88C114.461 6.88 113.554 7.10667 112.621 7.56C111.688 8.01333 110.768 8.66667 109.861 9.52C108.981 10.3733 108.141 11.4267 107.341 12.68C106.568 13.9333 105.874 15.36 105.261 16.96C104.674 18.5333 104.208 20.28 103.861 22.2C103.514 24.0933 103.341 26.1333 103.341 28.32C103.341 29.1733 103.274 29.84 103.141 30.32C103.034 30.7733 102.848 31.08 102.581 31.24C102.341 31.4267 102.008 31.52 101.581 31.52ZM134.886 31.4C133.312 31.4 131.952 31.1867 130.806 30.76C129.659 30.3333 128.712 29.72 127.966 28.92C127.219 28.12 126.659 27.1867 126.286 26.12C125.939 25.0533 125.766 23.88 125.766 22.6C125.766 21.2133 126.019 19.8267 126.526 18.44C127.059 17.0267 127.806 15.7467 128.766 14.6C129.726 13.4267 130.872 12.4933 132.206 11.8C133.566 11.08 135.072 10.72 136.726 10.72C138.086 10.72 139.259 10.96 140.246 11.44C141.259 11.8933 142.046 12.5867 142.606 13.52C143.166 14.4533 143.446 15.6267 143.446 17.04C143.446 18.1333 143.192 19.1067 142.686 19.96C142.179 20.7867 141.459 21.48 140.526 22.04C139.619 22.6 138.566 23.0267 137.366 23.32C136.166 23.5867 134.859 23.72 133.446 23.72C131.899 23.72 130.779 23.4933 130.086 23.04C129.419 22.56 129.086 22.0267 129.086 21.44C129.086 21.12 129.166 20.88 129.326 20.72C129.486 20.5333 129.766 20.44 130.166 20.44C130.459 20.44 130.819 20.4933 131.246 20.6C131.672 20.68 132.272 20.72 133.046 20.72C134.246 20.72 135.312 20.5733 136.246 20.28C137.179 19.96 137.926 19.5333 138.486 19C139.046 18.44 139.326 17.8133 139.326 17.12C139.326 16.32 139.126 15.72 138.726 15.32C138.326 14.92 137.659 14.72 136.726 14.72C135.739 14.72 134.846 14.96 134.046 15.44C133.246 15.8933 132.539 16.52 131.926 17.32C131.339 18.12 130.886 19.0267 130.566 20.04C130.246 21.0533 130.086 22.1067 130.086 23.2C130.086 24.0267 130.232 24.7733 130.526 25.44C130.819 26.1067 131.286 26.6267 131.926 27C132.592 27.3733 133.486 27.56 134.606 27.56C136.099 27.56 137.339 27.4 138.326 27.08C139.312 26.76 140.139 26.4 140.806 26C141.472 25.5733 142.032 25.2 142.486 24.88C142.966 24.56 143.419 24.4 143.846 24.4C144.246 24.4 144.526 24.5333 144.686 24.8C144.872 25.04 144.966 25.4267 144.966 25.96C144.966 26.5467 144.699 27.16 144.166 27.8C143.659 28.44 142.939 29.0267 142.006 29.56C141.099 30.0933 140.032 30.5333 138.806 30.88C137.606 31.2267 136.299 31.4 134.886 31.4ZM154.02 31.4C152.66 31.4 151.54 31.2267 150.66 30.88C149.78 30.5333 149.127 30.0933 148.7 29.56C148.3 29.0267 148.1 28.4533 148.1 27.84C148.1 27.3867 148.233 27.0133 148.5 26.72C148.793 26.4267 149.207 26.28 149.74 26.28C150.033 26.28 150.287 26.3333 150.5 26.44C150.74 26.5467 150.993 26.6667 151.26 26.8C151.553 26.9333 151.9 27.0533 152.3 27.16C152.727 27.2667 153.273 27.32 153.94 27.32C155.593 27.32 156.993 27.1333 158.14 26.76C159.313 26.36 160.127 25.7467 160.58 24.92C160.367 24.3867 159.94 23.9733 159.3 23.68C158.66 23.3867 157.9 23.1333 157.02 22.92C156.14 22.7067 155.22 22.48 154.26 22.24C153.327 21.9733 152.447 21.6533 151.62 21.28C150.82 20.88 150.167 20.36 149.66 19.72C149.153 19.08 148.9 18.2533 148.9 17.24C148.9 16.2 149.207 15.2667 149.82 14.44C150.433 13.6133 151.247 12.92 152.26 12.36C153.273 11.8 154.393 11.3733 155.62 11.08C156.847 10.7867 158.073 10.6533 159.3 10.68C160.553 10.7067 161.487 11 162.1 11.56C162.74 12.12 163.06 12.7467 163.06 13.44C163.06 13.92 162.927 14.3067 162.66 14.6C162.42 14.8933 162.047 15.04 161.54 15.04C161.3 15.04 161.073 15.0267 160.86 15C160.673 14.9733 160.46 14.96 160.22 14.96C159.98 14.9333 159.66 14.92 159.26 14.92C157.767 14.92 156.473 15.1333 155.38 15.56C154.287 15.96 153.473 16.5733 152.94 17.4C153.1 17.88 153.5 18.2667 154.14 18.56C154.78 18.8533 155.54 19.1067 156.42 19.32C157.327 19.5333 158.26 19.76 159.22 20C160.207 20.24 161.113 20.56 161.94 20.96C162.793 21.3333 163.487 21.84 164.02 22.48C164.553 23.12 164.82 23.9333 164.82 24.92C164.82 26.4133 164.327 27.64 163.34 28.6C162.353 29.56 161.047 30.2667 159.42 30.72C157.793 31.1733 155.993 31.4 154.02 31.4ZM178.864 31.4C177.504 31.4 176.277 31.1867 175.184 30.76C174.09 30.3067 173.224 29.7333 172.584 29.04C171.944 28.3467 171.624 27.6 171.624 26.8C171.624 26.4267 171.73 26.1067 171.944 25.84C172.184 25.5467 172.49 25.4 172.864 25.4C173.184 25.4 173.477 25.4933 173.744 25.68C174.037 25.84 174.357 26.04 174.704 26.28C175.077 26.4933 175.544 26.6933 176.104 26.88C176.664 27.04 177.397 27.12 178.304 27.12C179.69 27.12 180.81 26.7867 181.664 26.12C182.517 25.4267 182.944 24.2667 182.944 22.64C182.944 21.4667 182.717 20.4267 182.264 19.52C181.81 18.5867 181.184 17.7867 180.384 17.12C179.61 16.4533 178.73 15.9467 177.744 15.6C176.757 15.2267 175.73 15.04 174.664 15.04C174.13 15.04 173.61 15.1067 173.104 15.24C172.624 15.3467 172.157 15.4 171.704 15.4C171.304 15.4 170.93 15.3067 170.584 15.12C170.264 14.9333 169.997 14.68 169.784 14.36C169.597 14.0133 169.504 13.6533 169.504 13.28C169.504 12.3733 169.917 11.72 170.744 11.32C171.57 10.8933 172.864 10.68 174.624 10.68C176.41 10.68 178.077 10.9733 179.624 11.56C181.197 12.12 182.57 12.9467 183.744 14.04C184.917 15.1067 185.837 16.4133 186.504 17.96C187.17 19.5067 187.504 21.2533 187.504 23.2C187.504 24.3733 187.29 25.4533 186.864 26.44C186.464 27.4267 185.877 28.2933 185.104 29.04C184.357 29.7867 183.45 30.3733 182.384 30.8C181.344 31.2 180.17 31.4 178.864 31.4ZM171.584 41.44C171.184 41.44 170.81 41.3467 170.464 41.16C170.144 41 169.877 40.7333 169.664 40.36C169.477 40.0133 169.384 39.56 169.384 39C169.384 38.5467 169.437 38.1333 169.544 37.76C169.65 37.3867 169.757 36.96 169.864 36.48C169.997 36.0267 170.117 35.4533 170.224 34.76C170.33 34.0933 170.384 33.2267 170.384 32.16C170.384 30.2133 170.21 28.2933 169.864 26.4C169.544 24.48 169.197 22.56 168.824 20.64C168.477 18.72 168.277 16.76 168.224 14.76C168.197 14.12 168.33 13.6267 168.624 13.28C168.944 12.9333 169.357 12.76 169.864 12.76C170.424 12.76 170.917 12.92 171.344 13.24C171.797 13.5333 172.157 13.9333 172.424 14.44C172.717 14.92 172.864 15.4533 172.864 16.04C172.864 17.6133 172.97 19.1067 173.184 20.52C173.397 21.9333 173.637 23.32 173.904 24.68C174.17 26.0133 174.41 27.3467 174.624 28.68C174.837 30.0133 174.944 31.4 174.944 32.84C174.944 34.0667 174.877 35.2 174.744 36.24C174.637 37.3067 174.45 38.2267 174.184 39C173.944 39.7733 173.61 40.3733 173.184 40.8C172.757 41.2267 172.224 41.44 171.584 41.44ZM202.352 31.48C200.245 31.48 198.365 31.04 196.712 30.16C195.058 29.2533 193.752 28.0267 192.792 26.48C191.858 24.9067 191.392 23.1067 191.392 21.08C191.392 19.64 191.672 18.3067 192.232 17.08C192.792 15.8533 193.498 14.7867 194.352 13.88C195.232 12.9467 196.138 12.2267 197.072 11.72C198.032 11.2133 198.885 10.96 199.632 10.96C199.978 10.96 200.285 11.0133 200.552 11.12C200.845 11.2267 201.072 11.3867 201.232 11.6C201.392 11.8133 201.472 12.1067 201.472 12.48C201.472 13.1733 201.325 13.7867 201.032 14.32C200.765 14.8267 200.205 15.2667 199.352 15.64C198.578 16.0667 197.925 16.56 197.392 17.12C196.885 17.6533 196.498 18.2533 196.232 18.92C195.965 19.56 195.832 20.2667 195.832 21.04C195.832 22.9867 196.405 24.5467 197.552 25.72C198.698 26.8933 200.258 27.48 202.232 27.48C203.885 27.48 205.218 26.88 206.232 25.68C207.245 24.4533 207.752 22.84 207.752 20.84C207.752 19.0267 207.312 17.6 206.432 16.56C205.552 15.4933 204.378 14.96 202.912 14.96C202.138 14.96 201.512 15.12 201.032 15.44C200.552 15.76 200.045 16.1867 199.512 16.72C199.112 17.12 198.792 17.4667 198.552 17.76C198.312 18.0533 198.072 18.28 197.832 18.44C197.618 18.6 197.325 18.68 196.952 18.68C196.525 18.68 196.178 18.5467 195.912 18.28C195.645 17.9867 195.512 17.48 195.512 16.76C195.512 16.12 195.712 15.4533 196.112 14.76C196.512 14.0667 197.032 13.4267 197.672 12.84C198.338 12.2533 199.085 11.7867 199.912 11.44C200.738 11.0667 201.578 10.88 202.432 10.88C204.458 10.88 206.192 11.2933 207.632 12.12C209.072 12.92 210.178 14.0667 210.952 15.56C211.725 17.0533 212.112 18.8133 212.112 20.84C212.112 22.84 211.685 24.6533 210.832 26.28C209.978 27.88 208.818 29.1467 207.352 30.08C205.885 31.0133 204.218 31.48 202.352 31.48ZM235.915 31.36C235.009 31.36 234.209 30.9733 233.515 30.2C232.849 29.4 232.329 28.16 231.955 26.48C231.582 24.7733 231.395 22.56 231.395 19.84C231.395 18.7733 231.369 17.92 231.315 17.28C231.289 16.6133 231.209 16.08 231.075 15.68C230.969 15.28 230.809 14.96 230.595 14.72C230.409 14.4533 230.155 14.1867 229.835 13.92C230.422 13.8933 230.915 13.96 231.315 14.12C231.715 14.2533 232.022 14.5067 232.235 14.88C232.449 15.2267 232.542 15.7467 232.515 16.44C232.115 15.8533 231.782 15.4667 231.515 15.28C231.249 15.0933 230.929 15 230.555 15C230.022 15 229.409 15.32 228.715 15.96C228.049 16.6 227.342 17.52 226.595 18.72C225.875 19.8933 225.169 21.3067 224.475 22.96C223.782 24.5867 223.155 26.3733 222.595 28.32C222.302 29.4667 221.969 30.2667 221.595 30.72C221.222 31.1467 220.715 31.36 220.075 31.36C218.982 31.36 218.169 30.76 217.635 29.56C217.102 28.36 216.835 26.8267 216.835 24.96C216.835 23.6267 216.889 22.4667 216.995 21.48C217.129 20.4667 217.262 19.5333 217.395 18.68C217.555 17.8 217.689 16.9067 217.795 16C217.929 15.0667 217.995 14.0133 217.995 12.84C217.995 12.2 218.142 11.72 218.435 11.4C218.755 11.0533 219.222 10.88 219.835 10.88C220.529 10.88 221.062 11.12 221.435 11.6C221.835 12.08 222.035 12.8667 222.035 13.96C222.035 14.7867 221.969 15.5867 221.835 16.36C221.702 17.1067 221.555 17.92 221.395 18.8C221.262 19.6533 221.142 20.6667 221.035 21.84C220.929 23.0133 220.902 24.4267 220.955 26.08L219.995 25.36C220.902 22.16 221.955 19.48 223.155 17.32C224.355 15.1333 225.622 13.4933 226.955 12.4C228.289 11.28 229.595 10.72 230.875 10.72C232.449 10.72 233.609 11.28 234.355 12.4C235.129 13.4933 235.515 14.9867 235.515 16.88C235.515 18.88 235.542 20.6 235.595 22.04C235.649 23.4533 235.795 24.6133 236.035 25.52C236.302 26.4267 236.702 27.12 237.235 27.6C237.555 27.8667 237.782 28.1467 237.915 28.44C238.049 28.7333 238.115 29.0933 238.115 29.52C238.115 30 237.929 30.4267 237.555 30.8C237.209 31.1733 236.662 31.36 235.915 31.36ZM246.793 31.4C245.433 31.4 244.313 31.2267 243.433 30.88C242.553 30.5333 241.9 30.0933 241.473 29.56C241.073 29.0267 240.873 28.4533 240.873 27.84C240.873 27.3867 241.007 27.0133 241.273 26.72C241.567 26.4267 241.98 26.28 242.513 26.28C242.807 26.28 243.06 26.3333 243.273 26.44C243.513 26.5467 243.767 26.6667 244.033 26.8C244.327 26.9333 244.673 27.0533 245.073 27.16C245.5 27.2667 246.047 27.32 246.713 27.32C248.367 27.32 249.767 27.1333 250.913 26.76C252.087 26.36 252.9 25.7467 253.353 24.92C253.14 24.3867 252.713 23.9733 252.073 23.68C251.433 23.3867 250.673 23.1333 249.793 22.92C248.913 22.7067 247.993 22.48 247.033 22.24C246.1 21.9733 245.22 21.6533 244.393 21.28C243.593 20.88 242.94 20.36 242.433 19.72C241.927 19.08 241.673 18.2533 241.673 17.24C241.673 16.2 241.98 15.2667 242.593 14.44C243.207 13.6133 244.02 12.92 245.033 12.36C246.047 11.8 247.167 11.3733 248.393 11.08C249.62 10.7867 250.847 10.6533 252.073 10.68C252.9 10.68 253.593 10.8133 254.153 11.08C254.713 11.3467 255.127 11.6933 255.393 12.12C255.687 12.5467 255.833 12.9867 255.833 13.44C255.833 13.92 255.7 14.3067 255.433 14.6C255.193 14.8933 254.82 15.04 254.313 15.04C254.073 15.04 253.847 15.0267 253.633 15C253.447 14.9733 253.233 14.96 252.993 14.96C252.753 14.9333 252.433 14.92 252.033 14.92C250.54 14.92 249.247 15.1333 248.153 15.56C247.06 15.96 246.247 16.5733 245.713 17.4C245.873 17.88 246.273 18.2667 246.913 18.56C247.553 18.8533 248.313 19.1067 249.193 19.32C250.1 19.5333 251.033 19.76 251.993 20C252.98 20.24 253.887 20.56 254.713 20.96C255.567 21.3333 256.26 21.84 256.793 22.48C257.327 23.12 257.593 23.9333 257.593 24.92C257.593 26.4133 257.1 27.64 256.113 28.6C255.127 29.56 253.82 30.2667 252.193 30.72C250.567 31.1733 248.767 31.4 246.793 31.4ZM264.645 31.44C264.058 31.44 263.591 31.3067 263.245 31.04C262.898 30.7733 262.631 30.4 262.445 29.92C262.285 29.4133 262.205 28.8267 262.205 28.16C262.205 26.1867 262.191 24.52 262.165 23.16C262.165 21.7733 262.151 20.5733 262.125 19.56C262.125 18.5467 262.111 17.6 262.085 16.72C262.085 15.84 262.085 14.9067 262.085 13.92C262.085 13.3333 262.178 12.8133 262.365 12.36C262.551 11.88 262.831 11.5067 263.205 11.24C263.605 10.9733 264.111 10.84 264.725 10.84C265.445 10.84 266.018 11.08 266.445 11.56C266.871 12.0133 267.098 12.72 267.125 13.68C267.125 14.24 267.111 15.04 267.085 16.08C267.085 17.12 267.058 18.2667 267.005 19.52C266.978 20.7467 266.938 22 266.885 23.28C266.858 24.5333 266.831 25.68 266.805 26.72C266.778 27.76 266.765 28.6 266.765 29.24C266.765 29.8533 266.591 30.3733 266.245 30.8C265.898 31.2267 265.365 31.44 264.645 31.44ZM265.005 7.68C263.911 7.68 263.005 7.37333 262.285 6.76C261.565 6.12 261.205 5.36 261.205 4.48C261.205 3.62666 261.498 2.94666 262.085 2.44C262.671 1.93333 263.418 1.68 264.325 1.68C265.071 1.68 265.711 1.85333 266.245 2.2C266.778 2.54667 267.178 2.98667 267.445 3.52C267.738 4.05333 267.885 4.58666 267.885 5.12C267.885 5.73333 267.658 6.32 267.205 6.88C266.778 7.41333 266.045 7.68 265.005 7.68ZM278.051 31.4C277.411 31.4 276.771 31.3467 276.131 31.24C275.491 31.1333 274.904 30.96 274.371 30.72C273.838 30.48 273.398 30.1733 273.051 29.8C272.731 29.4 272.571 28.9067 272.571 28.32C272.571 27.76 272.744 27.3467 273.091 27.08C273.464 26.7867 273.931 26.64 274.491 26.64C274.918 26.64 275.398 26.72 275.931 26.88C276.491 27.0133 277.038 27.08 277.571 27.08C278.824 27.08 280.051 26.9067 281.251 26.56C282.478 26.2133 283.571 25.7067 284.531 25.04C285.518 24.3733 286.291 23.5333 286.851 22.52C287.438 21.48 287.731 20.28 287.731 18.92C287.731 18.2267 287.651 17.6 287.491 17.04C287.331 16.4533 287.038 15.9867 286.611 15.64C286.184 15.2933 285.584 15.12 284.811 15.12C283.531 15.12 282.411 15.6133 281.451 16.6C280.491 17.56 279.678 18.9067 279.011 20.64C278.344 22.3733 277.798 24.36 277.371 26.6C277.264 27.1067 277.078 27.48 276.811 27.72C276.571 27.96 276.278 28.08 275.931 28.08C275.451 28.08 275.024 27.84 274.651 27.36C274.278 26.8533 274.011 26.1733 273.851 25.32C273.584 23.9067 273.358 22.48 273.171 21.04C273.011 19.6 272.891 18.2667 272.811 17.04C272.731 15.7867 272.691 14.7333 272.691 13.88C272.691 12.4133 272.718 11.1467 272.771 10.08C272.851 9.01333 272.931 8.06667 273.011 7.24C273.118 6.41333 273.198 5.65333 273.251 4.96C273.304 4.24 273.318 3.49333 273.291 2.72C273.264 2.16 273.371 1.66667 273.611 1.24C273.878 0.813332 274.318 0.599998 274.931 0.599998C275.731 0.599998 276.384 0.893332 276.891 1.48C277.398 2.04 277.651 2.90667 277.651 4.08C277.651 4.74667 277.611 5.41333 277.531 6.08C277.478 6.72 277.411 7.41333 277.331 8.16C277.251 8.90667 277.171 9.76 277.091 10.72C277.038 11.6533 277.011 12.7467 277.011 14C277.011 15.0667 277.024 16.16 277.051 17.28C277.104 18.3733 277.184 19.6133 277.291 21L276.251 19.6C276.704 17.6267 277.384 15.9867 278.291 14.68C279.198 13.3733 280.224 12.3867 281.371 11.72C282.544 11.0533 283.704 10.72 284.851 10.72C286.238 10.72 287.478 11.0267 288.571 11.64C289.691 12.2267 290.571 13.1467 291.211 14.4C291.851 15.6533 292.171 17.28 292.171 19.28C292.171 21.1467 291.771 22.8267 290.971 24.32C290.198 25.7867 289.144 27.0533 287.811 28.12C286.478 29.1867 284.958 30 283.251 30.56C281.571 31.12 279.838 31.4 278.051 31.4ZM302.755 31.44C302.169 31.44 301.582 31.3467 300.995 31.16C300.409 31 299.862 30.68 299.355 30.2C298.849 29.6933 298.395 28.96 297.995 28C297.595 27.04 297.275 25.7733 297.035 24.2C296.822 22.6267 296.715 20.6667 296.715 18.32C296.715 16.16 296.755 14.2267 296.835 12.52C296.942 10.7867 297.089 9.17333 297.275 7.68C297.462 6.18667 297.675 4.72 297.915 3.28C298.075 2.29333 298.315 1.6 298.635 1.2C298.982 0.799998 299.422 0.599998 299.955 0.599998C300.675 0.599998 301.235 0.879998 301.635 1.44C302.035 2 302.235 2.90667 302.235 4.16C302.235 4.93333 302.182 5.77333 302.075 6.68C301.969 7.56 301.849 8.57333 301.715 9.72C301.582 10.84 301.462 12.1733 301.355 13.72C301.249 15.24 301.195 17.04 301.195 19.12C301.195 20.7467 301.249 22.0933 301.355 23.16C301.462 24.2 301.595 25.0133 301.755 25.6C301.942 26.1867 302.155 26.6 302.395 26.84C302.662 27.08 302.929 27.2 303.195 27.2C303.515 27.2 303.769 27.1733 303.955 27.12C304.169 27.04 304.342 26.9733 304.475 26.92C304.609 26.8667 304.755 26.84 304.915 26.84C305.502 26.84 305.889 27 306.075 27.32C306.289 27.64 306.395 28.04 306.395 28.52C306.395 29.1067 306.222 29.6267 305.875 30.08C305.555 30.5067 305.115 30.84 304.555 31.08C304.022 31.32 303.422 31.44 302.755 31.44ZM317.798 41.44C315.984 41.44 314.451 41.2667 313.198 40.92C311.971 40.5733 311.051 40.0933 310.438 39.48C309.824 38.8933 309.518 38.1867 309.518 37.36C309.518 36.8267 309.664 36.4 309.958 36.08C310.251 35.7867 310.691 35.64 311.278 35.64C311.651 35.64 311.984 35.7067 312.278 35.84C312.598 35.9733 312.958 36.1333 313.358 36.32C313.784 36.5067 314.331 36.6667 314.998 36.8C315.691 36.9333 316.584 37 317.678 37C318.851 37 319.771 36.76 320.438 36.28C321.104 35.8267 321.584 35.16 321.878 34.28C322.171 33.4 322.318 32.3733 322.318 31.2C322.318 30.3467 322.291 29.5467 322.238 28.8C322.184 28.0267 322.118 27.2267 322.038 26.4C321.984 25.5733 321.918 24.64 321.838 23.6C321.784 22.56 321.744 21.3467 321.718 19.96L323.278 21.2C322.771 22.8533 322.198 24.2 321.558 25.24C320.918 26.2533 320.251 27.0533 319.558 27.64C318.864 28.2 318.184 28.5867 317.518 28.8C316.878 28.9867 316.264 29.08 315.678 29.08C314.078 29.08 312.704 28.6667 311.558 27.84C310.438 27.0133 309.558 25.7333 308.918 24C308.304 22.2667 307.998 20.0267 307.998 17.28C307.998 15.44 308.104 14.0533 308.318 13.12C308.531 12.16 308.824 11.52 309.198 11.2C309.598 10.88 310.038 10.72 310.518 10.72C311.104 10.72 311.571 10.84 311.918 11.08C312.264 11.2933 312.518 11.64 312.678 12.12C312.838 12.6 312.891 13.2 312.838 13.92C312.784 15.36 312.744 16.7333 312.718 18.04C312.718 19.32 312.798 20.4667 312.958 21.48C313.118 22.4933 313.384 23.2933 313.758 23.88C314.158 24.44 314.718 24.72 315.438 24.72C316.504 24.72 317.438 24.1867 318.238 23.12C319.064 22.0533 319.731 20.6267 320.238 18.84C320.771 17.0267 321.158 15.0133 321.398 12.8C321.478 12 321.638 11.4667 321.878 11.2C322.118 10.9067 322.531 10.76 323.118 10.76C323.491 10.76 323.851 10.84 324.198 11C324.544 11.1333 324.838 11.3733 325.078 11.72C325.318 12.04 325.491 12.48 325.598 13.04C325.731 13.5733 325.758 14.2267 325.678 15C325.544 16.36 325.491 17.5467 325.518 18.56C325.544 19.5733 325.611 20.5333 325.718 21.44C325.824 22.32 325.944 23.2267 326.078 24.16C326.211 25.0667 326.331 26.08 326.438 27.2C326.544 28.32 326.598 29.6533 326.598 31.2C326.598 32.96 326.371 34.48 325.918 35.76C325.491 37.0667 324.878 38.1333 324.078 38.96C323.304 39.8133 322.384 40.44 321.318 40.84C320.251 41.24 319.078 41.44 317.798 41.44ZM340.997 15.24C340.277 15.24 339.69 15.0133 339.237 14.56C338.783 14.08 338.637 13.4133 338.797 12.56C339.037 11.3867 339.237 10.1333 339.397 8.8C339.557 7.44 339.583 6.10667 339.477 4.8C339.45 4.10666 339.597 3.53333 339.917 3.08C340.237 2.6 340.743 2.36 341.437 2.36C342.077 2.36 342.597 2.52 342.997 2.84C343.423 3.16 343.677 3.56 343.757 4.04C344.023 5.58666 344.077 7.21333 343.917 8.92C343.757 10.6267 343.437 12.2133 342.957 13.68C342.823 14.16 342.583 14.5467 342.237 14.84C341.89 15.1067 341.477 15.24 340.997 15.24ZM331.757 15.24C331.277 15.24 330.837 15.0933 330.437 14.8C330.063 14.5067 329.783 14.12 329.597 13.64C329.437 13.1333 329.437 12.6267 329.597 12.12C329.89 11.1067 330.13 9.94667 330.317 8.64C330.503 7.33333 330.477 6.05333 330.237 4.8C330.13 4.10666 330.25 3.53333 330.597 3.08C330.97 2.6 331.503 2.36 332.197 2.36C332.863 2.36 333.397 2.53333 333.797 2.88C334.223 3.2 334.49 3.6 334.597 4.08C334.81 5.06667 334.903 6.12 334.877 7.24C334.85 8.36 334.73 9.46666 334.517 10.56C334.303 11.6533 334.037 12.6933 333.717 13.68C333.53 14.16 333.277 14.5467 332.957 14.84C332.637 15.1067 332.237 15.24 331.757 15.24Z" fill="white"/>
</svg>
